<svg width="181" height="35" viewBox="0 0 181 35" fill="none" xmlns="http://www.w3.org/2000/svg">
<path d="M143.365 34.7107L158.988 0H165.334L180.999 34.7107H174.253L160.821 3.42277H163.402L150.011 34.7107H143.365Z" fill="#416256"/>
<path d="M110.896 34.7107V0.00830078H125.129C129.759 0.00830078 133.374 1.09926 135.988 3.28118C138.637 5.46309 139.953 8.48612 139.953 12.3503C139.953 14.8986 139.353 17.0972 138.17 18.946C136.98 20.7615 135.281 22.1689 133.065 23.1599C130.883 24.1176 128.26 24.6006 125.179 24.6006H114.469L117.342 21.6775V34.719H110.896V34.7107ZM133.598 34.7107L124.821 22.1189H131.716L140.544 34.7107H133.607H133.598ZM117.342 22.3604L114.469 19.2874H124.879C127.719 19.2874 129.851 18.6795 131.275 17.4553C132.732 16.2311 133.457 14.5322 133.457 12.3503C133.457 10.1684 132.732 8.43615 131.275 7.24526C129.851 6.05437 127.719 5.46308 124.879 5.46308H114.469L117.342 2.29015V22.3687V22.3604Z" fill="#416256"/>
<path d="M62.0527 34.7107V0.00830078H67.3576L82.531 25.3418H79.7578L94.6815 0.00830078H99.9864L100.036 34.7107H93.9403L93.8903 9.57707H95.1811L82.4894 30.7466H79.6163L66.7247 9.57707H68.2154V34.7107H62.0694H62.0527Z" fill="#416256"/>
<path d="M36.6529 0L17.3554 0C7.76996 0 0 7.76994 0 17.3554C0 26.9408 7.76996 34.7107 17.3554 34.7107H36.6529C46.2383 34.7107 54.0082 26.9408 54.0082 17.3554C54.0082 7.76994 46.2383 0 36.6529 0ZM31.7136 22.0606C25.6592 28.115 18.6471 30.9132 16.0488 28.3149C13.4505 25.7166 16.2486 18.7045 22.303 12.6501C28.3574 6.59571 35.3695 3.79752 37.9678 6.39583C40.5661 8.99414 37.768 16.0062 31.7136 22.0606Z" fill="url(#paint0_radial_87_88)"/>
<defs>
<radialGradient id="paint0_radial_87_88" cx="0" cy="0" r="1" gradientUnits="userSpaceOnUse" gradientTransform="translate(38.972 -1.77683) rotate(123.852) scale(46.3568 73.3946)">
<stop offset="0.106261" stop-color="#10CCA0"/>
<stop offset="1" stop-color="#0B764B"/>
</radialGradient>
</defs>
</svg>
